<svg xmlns="http://www.w3.org/2000/svg" viewBox="0 0 350 250">
  <g fill="none" fill-rule="nonzero">
    <path fill="#016FD0" d="M320 250H30c-16.6 0-30-13.4-30-30V30C0 13.4 13.4 0 30 0h290c16.6 0 30 13.4 30 30v190c0 16.6-13.4 30-30 30z"/>
    <path fill="#EAEAEA" d="M320 10c11 0 20 9 20 20v190c0 11-9 20-20 20H30c-11 0-20-9-20-20V30c0-11 9-20 20-20h290zm0-10H30C13.4 0 0 13.4 0 30v190c0 16.6 13.4 30 30 30h290c16.6 0 30-13.4 30-30V30c0-16.6-13.4-30-30-30z"/>
    <path fill="#FFF" d="M74.06 186v-51.94h54.857l5.886 7.691 6.08-7.692H340v48.36s-5.207 3.529-11.23 3.581H218.515l-6.636-8.188V186h-21.744v-13.977s-2.97 1.952-9.392 1.952h-7.402V186h-32.923l-5.878-7.857-5.967 7.857H74.06zM10 94.913L22.37 66h21.394l7.02 16.196V66h26.594l4.18 11.706L85.607 66h119.38v5.885S211.264 66 221.578 66l38.734.136 6.899 15.983V66h22.255l6.126 9.182V66h22.459v51.94h-22.46l-5.87-9.211v9.211h-32.697l-3.289-8.188h-8.79l-3.235 8.188h-22.174c-8.875 0-14.548-5.764-14.548-5.764v5.764h-33.434l-6.635-8.188v8.188H40.595l-3.286-8.188h-8.763l-3.262 8.188H10V94.913z"/>
    <path fill="#016FD0" d="M27.66 72.347l-16.593 38.548h10.802l3.062-7.72H42.73l3.045 7.72h11.042L40.239 72.347h-12.58zm6.139 8.97l5.425 13.49H28.358l5.44-13.489zm24.16 29.571V72.34l15.35.057 8.93 24.854 8.715-24.91h15.229v38.547h-9.645V82.484l-10.224 28.404h-8.458L67.603 82.484v28.404h-9.645zm54.823 0V72.34h31.473v8.623h-21.727v6.594h21.22v8.115h-21.22v6.848h21.727v8.368h-31.473zm37.057-38.541v38.548h9.645V97.2h4.06l11.565 13.695h11.786l-12.69-14.202c5.208-.44 10.58-4.906 10.58-11.84 0-8.112-6.372-12.506-13.483-12.506h-21.463zm9.645 8.622h11.024c2.645 0 4.57 2.067 4.57 4.058 0 2.561-2.494 4.058-4.427 4.058h-11.167v-8.116zm39.087 29.92h-9.848V72.34h9.848v38.548zm23.35 0h-2.125c-10.285 0-16.53-8.097-16.53-19.116 0-11.291 6.175-19.433 19.163-19.433h10.66v9.13h-11.05c-5.272 0-9 4.111-9 10.398 0 7.465 4.263 10.6 10.405 10.6h2.538l-4.06 8.42zm20.988-38.542l-16.593 38.548h10.803l3.061-7.72h17.799l3.046 7.72h11.04l-16.577-38.548h-12.58zm6.139 8.97l5.425 13.49h-10.866l5.44-13.489zm24.144 29.571V72.34h12.262l15.657 24.22V72.34h9.645v38.548H298.89l-16.054-24.853v24.853h-9.644zm-191.883 67.46V139.8h31.473v8.622H91.056v6.594h21.218v8.116H91.056v6.847h21.726v8.37l-31.473-.001zm154.217 0V139.8h31.473v8.622h-21.727v6.594h21.118v8.116h-21.118v6.847h21.726v8.37l-31.472-.001zm-121.523 0l15.324-19.037L113.64 139.8h12.151l9.344 12.063 9.375-12.063h11.675l-15.482 19.275 15.352 19.274h-12.15l-9.072-11.872-8.851 11.872h-11.978zm43.196-38.542v38.548h9.899v-12.173h10.152c8.59 0 15.102-4.554 15.102-13.41 0-7.336-5.107-12.965-13.848-12.965h-21.305zm9.899 8.718h10.692c2.775 0 4.759 1.7 4.759 4.438 0 2.573-1.974 4.438-4.79 4.438h-10.661v-8.876zm29.442-8.725v38.549h9.645v-13.695h4.061l11.564 13.695h11.787l-12.69-14.202c5.207-.44 10.58-4.906 10.58-11.84 0-8.112-6.372-12.507-13.484-12.507H196.54zm9.645 8.623h11.025c2.645 0 4.569 2.067 4.569 4.058 0 2.56-2.493 4.058-4.426 4.058h-11.168v-8.116zm65.28 29.926v-8.37h19.303c2.856 0 4.093-1.541 4.093-3.233 0-1.62-1.233-3.259-4.093-3.259h-8.722c-7.582 0-11.805-4.615-11.805-11.545 0-6.181 3.867-12.142 15.134-12.142h18.782l-4.061 8.674h-16.244c-3.105 0-4.061 1.628-4.061 3.183 0 1.598 1.181 3.36 3.553 3.36h9.137c8.452 0 12.12 4.79 12.12 11.063 0 6.745-4.087 12.269-12.58 12.269h-20.555zm35.4 0v-8.37h19.302c2.856 0 4.093-1.541 4.093-3.233 0-1.62-1.233-3.259-4.093-3.259h-8.722c-7.582 0-11.805-4.615-11.805-11.545 0-6.181 3.867-12.142 15.134-12.142h18.782l-4.061 8.674H319.25c-3.105 0-4.061 1.628-4.061 3.183 0 1.598 1.18 3.36 3.553 3.36h9.137c8.452 0 12.12 4.79 12.12 11.063 0 6.745-4.087 12.269-12.58 12.269h-20.555z"/>
  </g>
</svg>
