<svg width="350px" height="250px" viewBox="0 0 350 250" version="1.1" xmlns="http://www.w3.org/2000/svg" xmlns:xlink="http://www.w3.org/1999/xlink">
    <g stroke="none" stroke-width="1" fill="none" fill-rule="evenodd">
        <path d="M315.857143,5 L34.1428571,5 C18.0171429,5 5,17.864 5,33.8 L5,216.2 C5,232.136 18.0171429,245 34.1428571,245 L315.857143,245 C331.982857,245 345,232.136 345,216.2 L345,33.8 C345,17.864 331.982857,5 315.857143,5 Z" fill="#EED542"></path>
        <path d="M320,10 C331,10 340,19 340,30 L340,220 C340,231 331,240 320,240 L30,240 C19,240 10,231 10,220 L10,30 C10,19 19,10 30,10 L320,10 Z M320,0 L30,0 C13.4,0 0,13.4 0,30 L0,220 C0,236.6 13.4,250 30,250 L320,250 C336.6,250 350,236.6 350,220 L350,30 C350,13.4 336.6,0 320,0 Z" fill="#E7E7E7"></path>
        <path d="M95.444444,181.39397 L111.940353,170.392247 L128.429586,181.39397 L95.444444,203.370714 L95.444444,181.39397 Z M253.761111,67.0574931 L237.278554,78.0458648 L220.782644,67.0574931 L253.761111,45.074074 L253.761111,67.0574931 Z M253.761111,150.605167 L174.606115,203.370714 L95.444444,150.605167 L189.453101,87.9460806 L205.935659,98.9344522 L130.07851,149.50366 L176.255039,180.285787 L197.691042,165.999569 L181.201809,155.004521 L220.782644,128.621748 L253.761111,150.605167 Z M95.444444,97.8396205 L174.606115,45.074074 L253.761111,97.8396205 L159.765805,160.505383 L143.276572,149.50366 L219.133721,98.9344522 L172.957192,68.1590006 L151.521189,82.4518947 L168.010422,93.4402664 L128.429586,119.82304 L95.444444,97.8396205 Z" fill="#324989"></path>
    </g>
</svg>
