<svg width="350px" height="250px" viewBox="0 0 350 250" version="1.1" xmlns="http://www.w3.org/2000/svg" xmlns:xlink="http://www.w3.org/1999/xlink">
    <g stroke="none" stroke-width="1" fill="none" fill-rule="evenodd">
        <path d="M315.857143,5 L34.1428571,5 C18.0171429,5 5,17.864 5,33.8 L5,216.2 C5,232.136 18.0171429,245 34.1428571,245 L315.857143,245 C331.982857,245 345,232.136 345,216.2 L345,33.8 C345,17.864 331.982857,5 315.857143,5 Z" fill="#CA0100"></path>
        <path d="M320,10 C331,10 340,19 340,30 L340,220 C340,231 331,240 320,240 L30,240 C19,240 10,231 10,220 L10,30 C10,19 19,10 30,10 L320,10 Z M320,0 L30,0 C13.4,0 0,13.4 0,30 L0,220 C0,236.6 13.4,250 30,250 L320,250 C336.6,250 350,236.6 350,220 L350,30 C350,13.4 336.6,0 320,0 Z" fill="#E7E7E7"></path>
        <path d="M211.71185,118.607819 C211.458455,112.738634 209.814809,106.917389 206.774064,101.650874 L179.968942,55.2247306 C177.921234,51.6840437 176.510438,47.8899615 175.729706,44 L174.606548,45.9381322 C167.970328,57.4299553 167.970328,71.585854 174.606548,83.0845256 L196.049276,120.22407 C202.685496,131.715893 202.685496,145.878641 196.049276,157.363615 L194.932967,159.308596 C194.152235,155.418634 192.727742,151.624552 190.693731,148.083865 L158.519365,92.3642754 C156.478505,88.8235885 155.067709,85.0295063 154.280129,81.1395448 L153.16382,83.0845256 C146.548146,94.5352574 146.5276,108.636368 153.095335,120.107645 L174.606548,157.363615 C181.242768,168.862287 181.242768,183.018185 174.606548,194.510008 L173.48339,196.448141 C172.702658,192.558179 171.291862,188.764097 169.244154,185.230259 L142.439032,138.797267 C138.843557,132.571959 137.199911,125.55907 137.501246,118.614667 C108.805931,126.113801 89,142.02977 89,160.459148 C89,186.10687 127.331188,206.89214 174.606548,206.89214 C221.881908,206.89214 260.213096,186.10687 260.213096,160.459148 C260.213096,142.02977 240.407165,126.106952 211.71185,118.607819" fill="#FFFFFF"></path>
    </g>
</svg>
