<svg viewBox="0 0 350 250" xmlns="http://www.w3.org/2000/svg">
    <path fill="#F8F8F8" d="M320 250H30c-16.6 0-30-13.4-30-30V30C0 13.4 13.4 0 30 0h290c16.6 0 30 13.4 30 30v190c0 16.6-13.4 30-30 30z"/>
    <path fill="#E7E7E7" d="M320 10c11 0 20 9 20 20v190c0 11-9 20-20 20H30c-11 0-20-9-20-20V30c0-11 9-20 20-20h290m0-10H30C13.4 0 0 13.4 0 30v190c0 16.6 13.4 30 30 30h290c16.6 0 30-13.4 30-30V30c0-16.6-13.4-30-30-30z"/>
    <path fill="#0F2496" d="M146.9 82.1l-18.4 85.4h22.2l18.4-85.4h-22.2zm143 0H271c-4.2 0-7.9 2.5-9.4 6.2l-33.4 79.2h23.3l4.6-12.8h28.5l2.7 12.8h20.6l-18-85.4zm-27.3 55.1l11.6-32 6.7 32h-18.3zM114 82.1l-23.1 58.1-9.4-49.4c-1.2-5.6-5.4-8.8-10.3-8.8H33.6l-.5 2.5c7.8 1.7 16.5 4.4 21.9 7.2 3.2 1.9 4.2 3.4 5.2 7.6l17.7 68.3h23.4l36.1-85.4H114v-.1zm84.3 23.8c0-3 3-6.4 9.4-7.1 3.2-.3 12-.7 21.9 3.9l3.9-18.2c-5.4-1.9-12.3-3.7-20.7-3.7-21.9 0-37.4 11.6-37.6 28.3-.2 12.3 11.1 19.2 19.4 23.3 8.6 4.2 11.6 6.9 11.5 10.6 0 5.7-6.9 8.3-13.3 8.4-11.1.2-17.7-3-22.8-5.4l-4 18.7c5.2 2.4 14.8 4.4 24.8 4.6 23.4 0 38.6-11.5 38.8-29.2-.2-22.9-31.5-24.3-31.3-34.2z" />
</svg>
