<svg width="350" height="250" viewBox="0 0 350 250" xmlns="http://www.w3.org/2000/svg">
  <g fill="none" fill-rule="evenodd">
    <g fill-rule="nonzero">
      <path d="M315.857 5H34.143C18.017 5 5 17.864 5 33.8v182.4C5 232.136 18.017 245 34.143 245h281.714C331.983 245 345 232.136 345 216.2V33.8C345 17.864 331.983 5 315.857 5z" fill="#0066B3"/>
      <path d="M320 10c11 0 20 9 20 20v190c0 11-9 20-20 20H30c-11 0-20-9-20-20V30c0-11 9-20 20-20h290zm0-10H30C13.4 0 0 13.4 0 30v190c0 16.6 13.4 30 30 30h290c16.6 0 30-13.4 30-30V30c0-16.6-13.4-30-30-30z" fill="#E7E7E7"/>
    </g>
    <path fill="#F29100" d="M142.207 127.7L77 192.777h59.487l65.205-65.077zM214.036 56.018l-25.801 25.75 20.08 39.323 65.205-65.073z"/>
    <path fill="#FEFEFE" d="M160.207 56l-44.61.006 33.232 65.085h59.486l-33.236-65.09zM162.286 167.029l13.146 25.749h59.485l-33.225-65.075z"/>
  </g>
</svg>
