<svg width="350" height="251" viewBox="0 0 350 251" xmlns="http://www.w3.org/2000/svg"><g fill="none" fill-rule="evenodd"><path d="M316.076 6H35.023C18.966 6 6 18.9 6 34.8v182.4C6 233.1 18.966 246 35.023 246h280.954C332.034 246 345 233.1 345 217.2V34.8C345.1 18.9 332.134 6 316.076 6z" fill="#F4811F" fill-rule="nonzero"/><path d="M112.197 32h124.906c8.693 0 15.956 3.095 21.91 9.05 6.192 6.072 9.287 13.454 9.287 22.147v124.787c0 8.573-3.095 15.956-9.288 22.028-5.953 5.954-13.216 9.05-21.909 9.05H112.197c-8.693 0-16.075-3.096-22.147-9.05-5.954-6.072-9.05-13.455-9.05-22.028V63.197c0-8.693 3.096-16.075 9.05-22.147 6.072-5.955 13.454-9.05 22.147-9.05" fill="#2E3092"/><path d="M96.48 187.984h14.764v-62.513H96.48v62.513zm70.37-14.17c0-5.596 5.597-8.096 16.551-7.977v5l-.119 2.74c-.594 1.785-1.904 3.333-3.572 4.287-1.667 1.428-3.69 2.143-5.953 2.143-4.525 0-6.906-2.143-6.906-6.192zm-19.17-32.506h-8.93v-15.837H124.7v15.837h-6.668v10.716h6.668v18.813c0 6.43 1.19 11.194 3.929 13.932 2.619 2.857 6.55 4.287 11.312 4.287 3.096 0 5.596-.357 7.859-1.191l-.12-10.955c-.476.357-1.309.596-2.739.596-2.26 0-3.928-.834-5-2.5-.833-1.191-1.19-3.335-1.19-6.431v-16.55h8.93v-10.717zm35.366 15.48c-9.527 0-16.79 1.428-21.792 4.524-5.12 3.096-7.858 7.74-7.858 13.693 0 3.691 1.548 7.026 4.167 9.764 3.096 2.857 7.025 4.287 11.788 4.287 6.432 0 11.193-2.025 14.526-5.954h.358v4.882h13.337v-27.506c0-6.191-1.668-10.954-4.764-14.407-3.81-3.93-9.407-6.074-16.789-6.074-7.62 0-14.05 1.429-19.05 4.525l2.738 9.17c4.047-2.501 8.693-3.69 13.812-3.69 6.43 0 9.527 2.022 9.527 6.31v.475zm37.269-15.48h-14.527v27.03c0 7.263 1.905 12.62 5.357 16.193 3.217 3.095 7.264 4.525 12.503 4.525 7.264 0 12.623-2.859 15.956-8.454h.119v7.382h12.86v-46.676h-14.525v27.267c0 1.19-.12 2.262-.359 2.857-1.667 3.93-4.526 6.074-8.93 6.074-5.597 0-8.454-3.93-8.454-11.67v-24.528zm3.691-3.215h10.121l12.503-12.622h-13.693l-8.931 12.622z" fill="#FFF100"/><path d="M320 11c11 0 20 9 20 20v190c0 11-9 20-20 20H30c-11 0-20-9-20-20V31c0-11 9-20 20-20h290zm0-10H30C13.4 1 0 14.4 0 31v190c0 16.6 13.4 30 30 30h290c16.6 0 30-13.4 30-30V31c0-16.6-13.4-30-30-30z" fill="#E7E7E7" fill-rule="nonzero"/></g></svg>
